<svg xmlns="http://www.w3.org/2000/svg" viewBox="0 0 460 132">
  <line x1="16" y1="112" x2="124" y2="112" stroke="#ffffff" stroke-width="3" stroke-linecap="round"/>
  <line x1="16" y1="112" x2="16" y2="118" stroke="#ffffff" stroke-width="2" stroke-linecap="round"/>
  <line x1="124" y1="112" x2="124" y2="118" stroke="#ffffff" stroke-width="2" stroke-linecap="round"/>

  <rect x="47" y="105" width="46" height="7" rx="1" fill="#4c5568"/>
  <rect x="50" y="98" width="40" height="7" rx="1" fill="#4f5f82"/>
  <rect x="53" y="91" width="34" height="7" rx="1" fill="#4a6ba0"/>
  <rect x="56" y="84" width="28" height="7" rx="1" fill="#4177c2"/>
  <rect x="59" y="77" width="22" height="7" rx="1" fill="#3c86e6"/>
  <rect x="62" y="70" width="16" height="7" rx="1" fill="#5b9bff"/>
  <rect x="64" y="63" width="12" height="7" rx="1" fill="none" stroke="#5b9bff" stroke-width="1.5" stroke-dasharray="2 2"/>

  <polygon points="58,40 82,40 74,58 66,58" fill="#ffffff"/>
  <line x1="70" y1="58" x2="70" y2="63" stroke="#5b9bff" stroke-width="2" stroke-linecap="round"/>

  <path d="M18 112 L18 34 L30 26" fill="none" stroke="#ffffff" stroke-width="3.5" stroke-linecap="round" stroke-linejoin="round"/>
  <circle cx="18" cy="112" r="3" fill="#ffffff"/>
  <line x1="18" y1="48" x2="28" y2="48" stroke="#ffffff" stroke-width="2"/>
  <line x1="18" y1="66" x2="28" y2="66" stroke="#ffffff" stroke-width="2"/>
  <line x1="18" y1="84" x2="28" y2="84" stroke="#ffffff" stroke-width="2"/>
  <line x1="18" y1="102" x2="28" y2="102" stroke="#ffffff" stroke-width="2"/>

  <path d="M122 112 L122 40 L108 30" fill="none" stroke="#ffffff" stroke-width="3.5" stroke-linecap="round" stroke-linejoin="round"/>
  <rect x="97" y="13" width="27" height="21" rx="3" fill="none" stroke="#ffffff" stroke-width="2"/>
  <circle cx="118" cy="27" r="6.5" fill="none" stroke="#ffffff" stroke-width="2"/>

  <text x="172" y="80" font-family="Charter, Georgia, 'Iowan Old Style', serif" font-weight="700" font-size="48" fill="#ffffff">RAM</text>
  <text x="174" y="101" font-family="-apple-system, 'Segoe UI', Roboto, Arial, sans-serif" font-weight="600" font-size="17" letter-spacing="3.5" fill="#c3ccdb">SOLUTIONS</text>
</svg>
